#!OML:ASF E:/inclinewalkrobotboard/Project1/Captureday1/Session1/subject1.ASF
:FULLY-SPECIFIED
:DEGREES
226
root 0 0 0 2.7067100876337977 -4.248674834876503 2.209759314811193
lowerback 11.801117370232095 1.1719870373434635 -0.13656178438730926
upperback -4.218814875765798 1.4990165794977561 -0.8093608412115657
thorax -11.09800359624095 0.690511952610833 -1.0878602882362587
lowerneck -6.903531114852228 1.2665114223786877 4.277553346538547
upperneck 19.41066812926611 2.6684614637145776 -8.082044298225805
head 7.2280513534912725 0.9063505797491483 -3.1471669931623865
rclavicle -7.587913691248717E-16 -9.28393129116676E-16
rhumerus 16.7590718822567 12.482761748470105 -50.9334844295131
rradius 68.359148624463
rwrist 24.283606476941692
rhand -32.90029076590772 -48.99634180848382
rfingers 7.125019999999962
rthumb -6.163518283402359 -79.08625510893421
lclavicle 1.01721098621301E-15 5.783245316518359E-16
lhumerus 17.178470546256804 -12.789160614664652 49.27875031377003
lradius 66.55687328558318
lwrist -18.612102576870143
lhand -43.8629140517258 -60.791397675099496
lfingers 7.125019999999954
lthumb -16.702738794347308 -31.33148637473607
rfemur -24.181122904692405 1.1182801942853657 18.304325625182603
rtibia 39.77148510092245
rfoot -21.459982787852486 -14.618271022773158
rtoes -19.759540786133517
lfemur -18.91989092206832 0.4449099168674181 -14.54201120987744
ltibia 38.78409227286153
lfoot -20.1413883921146 0.9152748187955329
ltoes -20.910687854958837
227
root 0 0 0 2.463826752867995 -4.199761317376291 2.375520019987948
lowerback 11.882994435486667 1.1321705557127322 -0.2787053528133291
upperback -4.204779422407839 1.4284839090845791 -0.8272437508227409
thorax -11.14423527239817 0.6605099017262532 -1.0154413535746718
lowerneck -6.869944658285643 1.2880299641612505 4.293346133001679
upperneck 19.551318146184354 2.702463883073655 -8.143451308952944
head 7.270080206711699 0.9166448572461007 -3.1680381156277875
rclavicle -5.130622082109729E-16 -1.2183382985448752E-15
rhumerus 16.338729189220416 11.889432749662666 -50.54189201757069
rradius 68.02049163659586
rwrist 24.71640386820891
rhand -32.89691474158529 -49.08571252902313
rfingers 7.125019999999963
rthumb -6.159537781439331 -79.20023372837376
lclavicle 9.807475683109122E-16 2.564044924512608E-16
lhumerus 17.12298156368999 -12.539899464266123 49.15157451754457
lradius 66.43979026070764
lwrist -18.79170799642073
lhand -43.88761469568723 -61.123056140085595
lfingers 7.125019999999954
lthumb -16.727829533102927 -31.665415436529916
rfemur -27.19127966227996 -0.5518241144358766 16.295064744923607
rtibia 50.61440255850771
rfoot -15.602707512061983 -13.782031539065867
rtoes -16.606401923291383
lfemur -18.02217657171853 1.5979515310103238 -14.257461846750255
ltibia 48.60493073856186
lfoot -15.956909693835069 -3.025242863655627
ltoes -21.00143194988594
228
root 0 0 0 2.1282319592621115 -4.089201150351812 2.5863545908978156
lowerback 12.024213380696615 1.055451833362574 -0.476214138940816
upperback -4.164519414239423 1.303582673301255 -0.8307826334893195
thorax -11.204207475948055 0.6059940873375413 -0.8885173422687402
lowerneck -6.888173950525069 1.3300401267315605 4.307184906268811
upperneck 19.604092552440257 2.766418630973729 -8.20308439245134
head 7.290590764270153 0.9404841956821107 -3.185382663784984
rclavicle -4.54792084019881E-16 -1.589648557359866E-15
rhumerus 16.0263266329603 11.42884577638486 -50.21314506676167
rradius 67.76905013995044
rwrist 25.075559058790454
rhand -32.90278540856265 -49.19362094085859
rfingers 7.125019999999963
rthumb -6.164875961851644 -79.33036567762849
lclavicle 7.95820680699004E-16 -8.722325703989956E-17
lhumerus 17.19336686600478 -12.462362364639727 49.04752416614668
lradius 66.4599884373846
lwrist -18.898921832437885
lhand -43.936926269945566 -61.41712918634864
lfingers 7.125019999999955
lthumb -16.776414256250966 -31.96361491446906
rfemur -30.56169119146353 -1.7824175809098097 15.026532686471835
rtibia 58.329222916806934
rfoot -11.246500369256784 -13.05270707440663
rtoes -12.78562014232477
lfemur -17.621447500270495 3.1076298948702448 -14.37537902239023
ltibia 59.51681654549869
lfoot -11.372759350255095 -7.050605426096901
ltoes -19.345843105327084
229
root 0 0 0 1.8030547111876771 -3.9321049893400315 2.773648486089317
lowerback 12.176464478927493 0.9523444688602141 -0.6753953053145324
upperback -4.105738313605306 1.1443918501514303 -0.8097045341295334
thorax -11.251803956719138 0.5349977667182086 -0.7299003837737825
lowerneck -6.970294841132612 1.3729282903118631 4.311372033984821
upperneck 19.60376381289561 2.831969856821292 -8.248491931910776
head 7.303066016760964 0.965507801303591 -3.196508386365722
rclavicle -5.913390092350725E-16 -1.947778729653388E-15
rhumerus 15.871482900452643 11.19928939410003 -50.048220934518184
rradius 67.64628156430611
rwrist 25.255188295163677
rhand -32.90707928757955 -49.2514802681472
rfingers 7.125019999999964
rthumb -6.168639167914316 -79.39619067071628
lclavicle 4.712432763591598E-16 -3.432836660794751E-16
lhumerus 17.317758357892686 -12.552647186819813 49.014805727652956
lradius 66.57241386111103
lwrist -18.897070769654157
lhand -43.9788051796654 -61.5341145778696
lfingers 7.125019999999956
lthumb -16.81773618035822 -32.084258849324755
rfemur -33.025310995238854 -2.386555981954202 14.689171725554878
rtibia 61.94100909930634
rfoot -9.811857722077448 -12.84611509903301
rtoes -9.727849922287207
lfemur -18.30902379795155 4.426982631386725 -14.866014246749215
ltibia 66.69531293603028
lfoot -8.32039487994025 -9.087610928095355
ltoes -15.848838826610844
230
root 0 0 0 1.6268104626909272 -3.8079254471405046 2.8896756750858703
lowerback 12.283969275173005 0.8652544682939152 -0.8177355733637693
upperback -4.057217515209705 1.013656331862382 -0.780671529269933
thorax -11.276545684488456 0.47572497490049387 -0.6005656524633118
lowerneck -7.0612619733059345 1.4031617890797896 4.305918654261068
upperneck 19.562683758602773 2.878931230139999 -8.271178844950539
head 7.303038113169547 0.9839291709743584 -3.1995982572433403
rclavicle -7.895086984530075E-16 -2.157445963148037E-15
rhumerus 15.954981426809661 11.316525186196829 -50.119372164129445
rradius 67.71576501834632
rwrist 25.174118185210695
rhand -32.91038809843254 -49.24691266303329
rfingers 7.125019999999964
rthumb -6.172449578823626 -79.38054888275892
lclavicle 2.300082039154546E-16 -4.489441761708195E-16
lhumerus 17.451822574496184 -12.776987477385568 49.06788643083763
lradius 66.73455750560863
lwrist -18.784955035999992
lhand -43.9997369552212 -61.4313554301796
lfingers 7.125019999999957
lthumb -16.83842229301333 -31.984230189639444
rfemur -34.84503426541387 -2.5430692223612326 14.631669944831971
rtibia 62.20623040238311
rfoot -10.721372047608703 -13.392190025628025
rtoes -8.334597348681967
lfemur -19.88504306281939 5.169244950346461 -15.28752939724237
ltibia 69.30391042441633
lfoot -8.379698077615148 -8.697882095729092
ltoes -12.856232715273062
231
root 0 0 0 1.650532510711821 -3.7566083850712917 2.9084402768838133
lowerback 12.327373205204507 0.8212286660551562 -0.8605406655891948
upperback -4.039667539298954 0.9522769070969809 -0.7556954122229903
thorax -11.285273218283987 0.44675059322418337 -0.54357123425145
lowerneck -7.114677393528043 1.423915869580615 4.30473858248701
upperneck 19.470916569569248 2.911890330143361 -8.28241094444264
head 7.279993878305787 0.9980429742887135 -3.1997613934821594
rclavicle -9.948927366613284E-16 -2.16574484216057E-15
rhumerus 16.28307032064783 11.759715509984362 -50.3793290622023
rradius 67.97973863639548
rwrist 24.87929994013784
rhand -32.9233200245213 -49.230376804860725
rfingers 7.125019999999964
rthumb -6.186565469719961 -79.34239767794259
lclavicle 1.6967089897502424E-16 -3.968364658419084E-16
lhumerus 17.615894583207826 -13.106906786865904 49.174542968134915
lradius 66.94660279524165
lwrist -18.597771739697972
lhand -44.01222513336495 -61.18852115936401
lfingers 7.125019999999957
lthumb -16.850042669012286 -31.74554714554974
rfemur -35.957361188401734 -2.371619437461951 14.69100575652874
rtibia 59.957845795393425
rfoot -13.247951975561838 -14.466347813563143
rtoes -8.645694022071968
lfemur -21.85894906876489 5.324952001900018 -15.47986608195759
ltibia 68.58106593029774
lfoot -10.96362254868798 -6.752429935784498
ltoes -11.465532515346638
232
root 0 0 0 1.8327740943745412 -3.7834694272765974 2.8217659690741517
lowerback 12.313165252470307 0.8307198948009042 -0.7854158548564881
upperback -4.053545663391321 0.9760171981202409 -0.739240806730486
thorax -11.283650064326947 0.45554349134244804 -0.5755887076886714
lowerneck -7.123452052155881 1.4351034834565681 4.314279241514196
upperneck 19.338094534482945 2.9292996567748055 -8.285507432553896
head 7.236083817856624 1.0073119335874972 -3.1993993728364796
rclavicle -1.2162333391751473E-15 -2.021251527950623E-15
rhumerus 16.753525261819973 12.378308625141942 -50.725843530985
rradius 68.35727099021335
rwrist 24.48343339873064
rhand -32.94684486718599 -49.23034338019551
rfingers 7.125019999999964
rthumb -6.2111894574427495 -79.31958165266195
lclavicle 2.226260407255593E-16 -2.0389975132598818E-16
lhumerus 17.805232478168158 -13.471140303428042 49.286224877376
lradius 67.18350993201298
lwrist -18.39598941931596
lhand -44.02563847014865 -60.9204580013358
lfingers 7.1250199999999575
lthumb -16.861133792079833 -31.4827299635899
rfemur -35.85877911769535 -1.9284513098005585 15.088701018964759
rtibia 56.25365648286464
rfoot -16.793864109206126 -15.644091242068676
rtoes -10.135529688598426
lfemur -23.774955414256084 4.991020492579064 -15.551572237897902
ltibia 64.67951720454522
lfoot -15.162051434943452 -3.7318274149437407
ltoes -11.424057293223061
